<svg xmlns="http://www.w3.org/2000/svg" xmlns:xlink="http://www.w3.org/1999/xlink" version="1.1" x="0px" y="0px" viewBox="0 0 100 125" enable-background="new 0 0 100 100" xml:space="preserve"><path d="M92.768,80.137l-0.637-22.44c0,0-0.338-4.218-11.206-7.054c-10.868-2.835-20.523-1.89-20.523-1.89L59.458,51.4h-8.236  l-1.215-4.063l-5.467,0.675l-2.295-8.235l0.067-5.603l-1.349-1.822l-1.823,0.472L34.954,22.63l-2.295-2.767  c-2.701,0.337-15.864,8.438-19.172,11.543c-3.307,3.105-5.535,8.978-5.535,8.978l-0.72,39.754h0.654v-3.885  c0-1.405,0.241-2.544,0.539-2.544c0.298,0,0.539,1.139,0.539,2.544v3.885h0.591v-4.131c0-1.51,0.321-2.736,0.717-2.736  c0.396,0,0.717,1.226,0.717,2.736v4.131h0.816v-4.379c0-1.51,0.482-2.736,1.078-2.736c0.595,0,1.076,1.226,1.076,2.736v4.379h1.485  v-4.79c0-1.51,0.635-2.735,1.418-2.735c0.782,0,1.417,1.224,1.417,2.735v4.79h1.582V74.89c0-1.51,0.84-2.735,1.875-2.735  c1.036,0,1.875,1.225,1.875,2.735v5.247h2.485V74.35c0-1.51,0.915-2.735,2.044-2.735c1.129,0,2.044,1.225,2.044,2.735v5.788h3.079  v-6.16c0-1.59,1.088-2.878,2.431-2.878c1.342,0,2.43,1.289,2.43,2.878v6.16h3.241v-6.394c0-1.64,1.33-2.971,2.97-2.971  c1.64,0,2.971,1.331,2.971,2.971v6.394h3.442v-6.394c0-1.64,1.331-2.971,2.971-2.971c1.64,0,2.97,1.331,2.97,2.971v6.394h2.498  v-5.435c0-1.435,1.163-2.598,2.598-2.598c1.436,0,2.599,1.163,2.599,2.598v5.435h2.497v-5.68c0-1.435,1.164-2.598,2.599-2.598  c1.435,0,2.599,1.163,2.599,2.598v5.68h1.957V75c0-1.436,0.952-2.599,2.126-2.599c1.175,0,2.127,1.163,2.127,2.599v5.138h1.148  v-4.723c0-1.347,0.71-2.439,1.586-2.439c0.876,0,1.586,1.092,1.586,2.439v4.723h1.299v-4.162c0-1.227,0.435-2.221,0.971-2.221  c0.536,0,0.971,0.994,0.971,2.221v4.162h0.961v-4.162c0-1.227,0.315-2.221,0.703-2.221c0.385,0,0.697,0.994,0.697,2.221v4.162h0.963  v-3.969c0-1.227,0.252-2.222,0.565-2.222c0.312,0,0.565,0.995,0.565,2.222v3.969h0.625v-3.722c0-1.228,0.255-2.222,0.567-2.222  c0.312,0,0.565,0.994,0.565,2.222v3.722H92.768z M9.257,65.474v3.256c-0.51,0.157-0.947,0.302-1.31,0.435v-3.69h0.009  c-0.005-0.108-0.009-0.218-0.009-0.329c0-1.144,0.293-2.071,0.655-2.071c0.363,0,0.655,0.927,0.655,2.071  c0,0.111-0.003,0.221-0.008,0.329H9.257z M9.842,58.238c-0.445,0.289-0.834,0.551-1.167,0.778v-4.584c0-1.022,0.262-1.85,0.583-1.85  c0.323,0,0.584,0.828,0.584,1.85V58.238z M11.418,64.768v3.352c-0.528,0.139-1.012,0.272-1.452,0.4v-3.752h0.008  c-0.006-0.111-0.008-0.227-0.008-0.344c0-1.198,0.325-2.168,0.726-2.168s0.726,0.97,0.726,2.168c0,0.117-0.003,0.233-0.009,0.344  H11.418z M10.69,57.698h-0.059v-5.106c0-1.076,0.353-1.947,0.786-1.947c0.435,0,0.787,0.871,0.787,1.947v4.197  C11.654,57.107,11.149,57.412,10.69,57.698z M14.241,63.483v3.956c-0.732,0.164-1.411,0.325-2.037,0.48v-4.437h0.012  c-0.009-0.124-0.012-0.251-0.012-0.381c0-1.321,0.455-2.392,1.018-2.392c0.563,0,1.019,1.071,1.019,2.392  c0,0.13-0.005,0.257-0.013,0.381H14.241z M13.038,56.316V51.02c0-1.272,0.539-2.302,1.204-2.302c0.665,0,1.203,1.03,1.203,2.302  v4.035C14.57,55.486,13.769,55.909,13.038,56.316z M18.482,62.584v3.998c-1.087,0.199-2.099,0.399-3.037,0.597v-4.595h0.019  c-0.012-0.143-0.019-0.29-0.019-0.439c0-1.529,0.681-2.768,1.518-2.768c0.839,0,1.519,1.239,1.519,2.768  c0,0.15-0.006,0.296-0.019,0.439H18.482z M19.428,53.264c-1.08,0.44-2.084,0.884-3.014,1.323v-5.295c0-1.436,0.674-2.6,1.506-2.6  c0.833,0,1.507,1.164,1.507,2.6V53.264z M23.95,61.369v4.321c-1.267,0.183-2.463,0.371-3.59,0.561v-4.882h0.023  c-0.015-0.143-0.023-0.29-0.023-0.441c0-1.528,0.803-2.766,1.794-2.766c0.992,0,1.795,1.238,1.795,2.766  c0,0.151-0.008,0.297-0.023,0.441H23.95z M24.693,51.369c-1.333,0.42-2.585,0.856-3.756,1.301v-5.301  c0-1.435,0.841-2.599,1.878-2.599c1.037,0,1.878,1.164,1.878,2.599V51.369z M30.43,59.885v4.994  c-1.516,0.163-2.96,0.336-4.332,0.516v-5.51h0.027c-0.018-0.144-0.027-0.291-0.027-0.441c0-1.528,0.969-2.768,2.167-2.768  c1.196,0,2.165,1.239,2.165,2.768c0,0.15-0.009,0.297-0.027,0.441H30.43z M31.038,49.676c-1.528,0.339-2.975,0.707-4.344,1.096  v-5.688c0-1.436,0.972-2.599,2.172-2.599c1.2,0,2.172,1.163,2.172,2.599V49.676z M38.531,59.007v5.16  c-1.934,0.135-3.777,0.287-5.534,0.453v-5.613h0.034c-0.023-0.144-0.034-0.291-0.034-0.441c0-1.528,1.238-2.768,2.767-2.768  c1.53,0,2.768,1.24,2.768,2.768c0,0.15-0.012,0.297-0.035,0.441H38.531z M38.834,48.326c-1.818,0.232-3.55,0.507-5.198,0.817v-5.654  c0-1.435,1.164-2.598,2.599-2.598c1.435,0,2.599,1.163,2.599,2.598V48.326z M47.104,58.138v5.588  c-1.913,0.066-3.758,0.15-5.535,0.251v-5.839h0.035c-0.023-0.143-0.035-0.29-0.035-0.44c0-1.529,1.239-2.768,2.768-2.768  c1.528,0,2.768,1.239,2.768,2.768c0,0.15-0.012,0.297-0.036,0.44H47.104z M64.386,63.923h-5.941v-3.724  c0-1.64,1.331-2.97,2.971-2.97c1.64,0,2.97,1.33,2.97,2.97V63.923z M73.296,65.454l-3.239,0.256v-2.972  c0-1.397,0.725-2.53,1.62-2.53c0.895,0,1.619,1.133,1.619,2.53V65.454z M78.022,68.431c-1.266,0.014-2.314,0.042-2.971,0.062v-5.24  c0-1.315,0.665-2.381,1.485-2.381c0.821,0,1.486,1.066,1.486,2.381V68.431z M82.038,68.447c-0.859-0.018-1.701-0.024-2.497-0.024  v-4.978c0-1.275,0.559-2.308,1.249-2.308c0.689,0,1.248,1.033,1.248,2.308V68.447z M85.313,68.59c-0.32-0.031-0.647-0.055-0.98-0.07  c-0.324-0.016-0.651-0.028-0.977-0.038V64.21c0-1.136,0.438-2.057,0.977-2.057c0.541,0,0.98,0.921,0.98,2.057V68.59z M87.967,69.024  c-0.455-0.104-0.932-0.2-1.431-0.278v-4.168c0-1.117,0.32-2.022,0.716-2.022c0.396,0,0.716,0.905,0.716,2.022V69.024z M90.03,69.608  c-0.357-0.12-0.742-0.239-1.153-0.353v-3.413c0-1.06,0.258-1.919,0.575-1.919c0.32,0,0.578,0.859,0.578,1.919V69.608z"/></svg>
