<svg xmlns="http://www.w3.org/2000/svg" xmlns:xlink="http://www.w3.org/1999/xlink" version="1.1" x="0px" y="0px" viewBox="0 0 100 100" enable-background="new 0 0 100 100" xml:space="preserve"><path d="M46.328,15.299l27.056,16.907H19.272L46.328,15.299 M46.328,11.054L6.718,35.805h79.221L46.328,11.054L46.328,11.054z"/><g><rect x="16.159" y="44.127" width="7.2" height="36.541"/></g><g><rect x="29.444" y="44.127" width="7.2" height="36.541"/></g><g><rect x="42.728" y="44.127" width="7.2" height="36.541"/></g><g><rect x="12.646" y="38.172" width="67.364" height="3.6"/></g><circle cx="46.328" cy="23.43" r="4.31"/><path d="M93.537,92.548H56.013V55.022h37.525V92.548z M59.613,88.948h30.325V58.622H59.613V88.948z"/><rect x="69.296" y="44.126" width="7.2" height="8.57"/><rect x="56.013" y="44.126" width="7.2" height="8.57"/><rect x="12.646" y="83.023" width="41.041" height="3.6"/><rect x="8.183" y="88.948" width="45.505" height="3.6"/><path d="M74.45,76.989l1.927-4.754l-4.746,1.928l-9.592,9.587l2.818,2.826L74.45,76.989z M74.216,73.651l0.747,0.747l-0.967,2.387  l-0.002,0.002l-2.164-2.164l0.005-0.005L74.216,73.651z"/><g><g><rect x="64.704" y="61.839" width="20.87" height="1.117"/></g><g><rect x="64.704" y="64.747" width="20.87" height="1.117"/></g><g><rect x="64.704" y="67.656" width="20.87" height="1.117"/></g><g><rect x="64.704" y="70.565" width="8.479" height="1.117"/></g></g></svg>
